<svg xmlns="http://www.w3.org/2000/svg" viewBox="0 0 500 500"><g id="freepik--background-complete--inject-2"><path d="M304,103.13a32.48,32.48,0,0,0-4.63,11.22l-6.27.59v12.14l6.27.59A32.53,32.53,0,0,0,304,138.9l-4,4.83,8.58,8.58,4.84-4a32.21,32.21,0,0,0,11.22,4.63l.59,6.27h12.14l.59-6.27a32.29,32.29,0,0,0,11.22-4.63l4.84,4,8.58-8.58-4-4.83a32.53,32.53,0,0,0,4.63-11.23l6.27-.59V114.94l-6.27-.59a32.48,32.48,0,0,0-4.63-11.22l4-4.84L354,89.71l-4.84,4A32.48,32.48,0,0,0,338,89.08l-.59-6.27H325.22l-.59,6.27a32.41,32.41,0,0,0-11.22,4.63l-4.84-4L300,98.29Zm41.24,4a19.71,19.71,0,1,1-27.88,0A19.72,19.72,0,0,1,345.23,107.08Z" style="fill:#f0f0f0"></path><rect x="179.24" y="34.23" width="95.58" height="75.46" rx="4.94" style="fill:#e6e6e6"></rect><path d="M183.86,34.23h86.41a4.55,4.55,0,0,1,4.55,4.55v8.61a0,0,0,0,1,0,0H179.24a0,0,0,0,1,0,0V38.86A4.63,4.63,0,0,1,183.86,34.23Z" style="fill:#e0e0e0"></path><path d="M269.75,41.77a2.88,2.88,0,1,1-2.87-2.87A2.87,2.87,0,0,1,269.75,41.77Z" style="fill:#fafafa;opacity:0.5"></path><path d="M261.59,41.77a2.88,2.88,0,1,1-2.88-2.87A2.87,2.87,0,0,1,261.59,41.77Z" style="fill:#fafafa;opacity:0.5"></path><circle cx="250.55" cy="41.77" r="2.87" style="fill:#fafafa;opacity:0.5"></circle><rect x="201.18" y="58.39" width="51.14" height="2.68" style="fill:#fff;opacity:0.6000000000000001"></rect><rect x="201.97" y="64.18" width="36.59" height="2.68" style="fill:#e0e0e0"></rect><rect x="256.84" y="58.39" width="9.35" height="2.68" style="fill:#f0f0f0"></rect><rect x="187.57" y="58.39" width="10.06" height="2.68" style="fill:#f0f0f0"></rect><rect x="201.18" y="70.62" width="51.14" height="2.68" style="fill:#f0f0f0"></rect><rect x="256.84" y="70.62" width="9.35" height="2.68" style="fill:#fff;opacity:0.6000000000000001"></rect><rect x="187.57" y="70.62" width="10.06" height="2.68" style="fill:#f0f0f0"></rect><rect x="201.18" y="96.12" width="51.14" height="2.68" style="fill:#fff;opacity:0.6000000000000001"></rect><rect x="256.84" y="96.12" width="9.35" height="2.68" style="fill:#fff;opacity:0.6000000000000001"></rect><rect x="201.18" y="77.07" width="51.14" height="2.68" style="fill:#f0f0f0"></rect><rect x="256.84" y="77.07" width="9.35" height="2.68" style="fill:#e0e0e0"></rect><rect x="187.57" y="77.07" width="10.06" height="2.68" style="fill:#e0e0e0"></rect><rect x="242.57" y="64.29" width="24.31" height="2.68" style="fill:#f0f0f0"></rect><rect x="201.18" y="82.69" width="36.59" height="2.68" style="fill:#fff;opacity:0.6000000000000001"></rect><rect x="241.77" y="82.8" width="24.31" height="2.68" style="fill:#f0f0f0"></rect><rect x="201.18" y="88.52" width="18.3" height="2.68" style="fill:#e0e0e0"></rect><path d="M400.3,87.26l-10.83,5.06,10.83,5.06v4.08l-14.47-7V90.2l14.47-7Z" style="fill:#e0e0e0"></path><path d="M433.27,90.2v4.24l-14.48,7V97.38l10.83-5.06-10.83-5.06V83.19Z" style="fill:#e0e0e0"></path><polygon points="412.08 80.34 405.02 104.74 408.55 104.74 415.61 80.34 412.08 80.34" style="fill:#e0e0e0"></polygon><path d="M37.36,217.84a18.87,18.87,0,0,0-2.71,6.56l-3.66.34v7.09l3.66.35a18.82,18.82,0,0,0,2.71,6.55L35,241.56l5,5,2.82-2.34a19.06,19.06,0,0,0,6.56,2.71l.34,3.66h7.09l.35-3.66a18.93,18.93,0,0,0,6.55-2.71l2.83,2.34,5-5-2.34-2.83A18.82,18.82,0,0,0,72,232.18l3.66-.35v-7.09L72,224.4a18.87,18.87,0,0,0-2.71-6.56L71.58,215l-5-5-2.83,2.33a18.91,18.91,0,0,0-6.55-2.7L56.84,206H49.75l-.34,3.66a19,19,0,0,0-6.56,2.7L40,210l-5,5Zm24.08,2.31a11.51,11.51,0,1,1-16.28,0A11.52,11.52,0,0,1,61.44,220.15Z" style="fill:#e0e0e0"></path><path d="M439.11,135.32a15.67,15.67,0,0,0-2.25,5.44l-3,.29v5.88l3,.29a15.67,15.67,0,0,0,2.25,5.44L437.17,155l4.16,4.16,2.35-1.94a15.64,15.64,0,0,0,5.44,2.24l.28,3h5.89l.29-3a15.8,15.8,0,0,0,5.44-2.24l2.34,1.94,4.17-4.16-1.94-2.35a15.84,15.84,0,0,0,2.24-5.44l3-.29v-5.88l-3-.29a15.67,15.67,0,0,0-2.25-5.44l1.95-2.35-4.17-4.16L461,130.75a15.8,15.8,0,0,0-5.44-2.24l-.29-3H449.4l-.28,3a15.64,15.64,0,0,0-5.44,2.24l-2.35-1.94L437.17,133Zm20,1.91a9.56,9.56,0,1,1-13.52,0A9.57,9.57,0,0,1,459.11,137.23Z" style="fill:#e0e0e0"></path><rect x="435.76" y="426.47" width="34.85" height="0.26" style="fill:#ebebeb"></rect><rect x="336.6" y="429.33" width="9.15" height="0.26" style="fill:#ebebeb"></rect><rect x="414.51" y="416.7" width="20.19" height="0.26" style="fill:#ebebeb"></rect><rect x="52.46" y="418.47" width="45.44" height="0.26" style="fill:#ebebeb"></rect><rect x="107.27" y="418.47" width="6.66" height="0.26" style="fill:#ebebeb"></rect><rect x="135.59" y="422.91" width="98.56" height="0.26" style="fill:#ebebeb"></rect><path d="M443.92,349.14H263.17a5.87,5.87,0,0,1-5.86-5.86V80a5.87,5.87,0,0,1,5.86-5.86H443.92A5.87,5.87,0,0,1,449.78,80V343.28A5.87,5.87,0,0,1,443.92,349.14ZM263.17,74.4A5.61,5.61,0,0,0,257.56,80V343.28a5.61,5.61,0,0,0,5.61,5.61H443.92a5.61,5.61,0,0,0,5.61-5.61V80a5.61,5.61,0,0,0-5.61-5.61Z" style="fill:#e0e0e0"></path><path d="M235.49,349.14H54.75a5.87,5.87,0,0,1-5.87-5.86V80a5.87,5.87,0,0,1,5.87-5.86H235.49A5.86,5.86,0,0,1,241.35,80V343.28A5.86,5.86,0,0,1,235.49,349.14ZM54.75,74.4A5.62,5.62,0,0,0,49.13,80V343.28a5.62,5.62,0,0,0,5.62,5.61H235.49a5.61,5.61,0,0,0,5.61-5.61V80a5.61,5.61,0,0,0-5.61-5.61Z" style="fill:#e0e0e0"></path><rect y="410.21" width="500" height="0.25" style="fill:#e0e0e0"></rect></g><g id="freepik--Shadow--inject-2"><path d="M455.06,447.49c0,3.38-93.52,6.13-208.88,6.13s-208.87-2.75-208.87-6.13,93.51-6.14,208.87-6.14S455.06,444.1,455.06,447.49Z" style="fill:#f5f5f5"></path></g><g id="freepik--Device--inject-2"><rect x="192.53" y="402.19" width="7.64" height="7.64" style="fill:#263238;isolation:isolate"></rect><path d="M94.51,121h23.63a0,0,0,0,1,0,0V353.54a0,0,0,0,1,0,0H92.72a7.32,7.32,0,0,1-7.32-7.32V130.12A9.11,9.11,0,0,1,94.51,121Z" style="fill:#fff;opacity:0.5"></path><polygon points="215.62 349.53 205.22 402.82 220.31 402.82 232.35 349.97 215.62 349.53" style="fill:#fff;opacity:0.5"></polygon><rect x="192.53" y="402.19" width="7.64" height="7.64" style="fill:#fff;opacity:0.5"></rect><polygon points="310.38 409.83 213.46 409.83 227.23 329.07 291.73 329.07 310.38 409.83" style="fill:#263238"></polygon><polygon points="310.38 409.83 213.46 409.83 227.23 329.07 291.73 329.07 310.38 409.83" style="fill:#fff;opacity:0.7000000000000001"></polygon><polygon points="297.35 353.54 223.02 353.54 220.31 369.45 299.51 362.91 297.35 353.54" style="isolation:isolate;opacity:0.1"></polygon><rect x="198.03" y="402.19" width="125.63" height="7.64" style="fill:#263238"></rect><g style="opacity:0.7000000000000001"><rect x="198.03" y="402.19" width="125.63" height="7.64" style="fill:#fff"></rect></g><path d="M101.23,121H415.47a8.11,8.11,0,0,1,8,8.17V345.37a8.11,8.11,0,0,1-8,8.17H101.23a8.11,8.11,0,0,1-8-8.17V129.18A8.11,8.11,0,0,1,101.23,121Z" style="fill:#263238"></path><g style="opacity:0.7000000000000001"><path d="M101.23,121H415.47a8.11,8.11,0,0,1,8,8.17V345.37a8.11,8.11,0,0,1-8,8.17H101.23a8.11,8.11,0,0,1-8-8.17V129.18A8.11,8.11,0,0,1,101.23,121Z" style="fill:#fff"></path></g><rect x="100.55" y="129.01" width="314.18" height="208.46" style="fill:#407BFF"></rect><rect x="100.55" y="129.01" width="314.18" height="208.46" style="fill:#fff;opacity:0.9"></rect><rect x="100.55" y="129.01" width="314.18" height="16.73" style="fill:#407BFF"></rect><path d="M410.55,137.38a3.56,3.56,0,1,1-3.56-3.55A3.56,3.56,0,0,1,410.55,137.38Z" style="fill:#fff;opacity:0.5"></path><path d="M400.44,137.38a3.56,3.56,0,1,1-3.55-3.55A3.56,3.56,0,0,1,400.44,137.38Z" style="fill:#fff;opacity:0.5"></path><path d="M390.34,137.38a3.56,3.56,0,1,1-3.56-3.55A3.56,3.56,0,0,1,390.34,137.38Z" style="fill:#fff;opacity:0.5"></path><path d="M158.8,267.82a14.73,14.73,0,0,0-2.08,5.05l-2.82.26v5.46l2.82.27a14.76,14.76,0,0,0,2.08,5l-1.8,2.18,3.86,3.86,2.18-1.8a14.68,14.68,0,0,0,5,2.08l.27,2.82h5.46l.26-2.82a14.73,14.73,0,0,0,5.05-2.08l2.17,1.8,3.86-3.86-1.8-2.18a14.51,14.51,0,0,0,2.09-5l2.81-.27v-5.46l-2.81-.26a14.56,14.56,0,0,0-2.09-5.05l1.8-2.17-3.86-3.86-2.17,1.8a14.56,14.56,0,0,0-5.05-2.09l-.26-2.81h-5.46l-.27,2.81a14.51,14.51,0,0,0-5,2.09l-2.18-1.8L157,265.65Zm17.3,3a7.1,7.1,0,1,1-10,0A7.1,7.1,0,0,1,176.1,270.84Z" style="fill:#407BFF"></path><path d="M158.8,267.82a14.73,14.73,0,0,0-2.08,5.05l-2.82.26v5.46l2.82.27a14.76,14.76,0,0,0,2.08,5l-1.8,2.18,3.86,3.86,2.18-1.8a14.68,14.68,0,0,0,5,2.08l.27,2.82h5.46l.26-2.82a14.73,14.73,0,0,0,5.05-2.08l2.17,1.8,3.86-3.86-1.8-2.18a14.51,14.51,0,0,0,2.09-5l2.81-.27v-5.46l-2.81-.26a14.56,14.56,0,0,0-2.09-5.05l1.8-2.17-3.86-3.86-2.17,1.8a14.56,14.56,0,0,0-5.05-2.09l-.26-2.81h-5.46l-.27,2.81a14.51,14.51,0,0,0-5,2.09l-2.18-1.8L157,265.65Zm17.3,3a7.1,7.1,0,1,1-10,0A7.1,7.1,0,0,1,176.1,270.84Z" style="fill:#fff;opacity:0.4"></path><path d="M319.92,201a13.54,13.54,0,0,0-1.93,4.68l-2.61.24V211l2.61.24a13.54,13.54,0,0,0,1.93,4.68l-1.67,2,3.58,3.58,2-1.67a13.54,13.54,0,0,0,4.68,1.93l.24,2.61h5.06l.24-2.61a13.54,13.54,0,0,0,4.68-1.93l2,1.67,3.58-3.58-1.67-2a13.54,13.54,0,0,0,1.93-4.68l2.61-.24V206l-2.61-.24a13.54,13.54,0,0,0-1.93-4.68l1.67-2-3.58-3.58-2,1.67a13.54,13.54,0,0,0-4.68-1.93l-.24-2.61h-5.06l-.24,2.61a13.54,13.54,0,0,0-4.68,1.93l-2-1.67L318.25,199Zm16,2.8a6.58,6.58,0,1,1-9.3,0A6.57,6.57,0,0,1,335.94,203.83Z" style="fill:#407BFF"></path><path d="M319.92,201a13.54,13.54,0,0,0-1.93,4.68l-2.61.24V211l2.61.24a13.54,13.54,0,0,0,1.93,4.68l-1.67,2,3.58,3.58,2-1.67a13.54,13.54,0,0,0,4.68,1.93l.24,2.61h5.06l.24-2.61a13.54,13.54,0,0,0,4.68-1.93l2,1.67,3.58-3.58-1.67-2a13.54,13.54,0,0,0,1.93-4.68l2.61-.24V206l-2.61-.24a13.54,13.54,0,0,0-1.93-4.68l1.67-2-3.58-3.58-2,1.67a13.54,13.54,0,0,0-4.68-1.93l-.24-2.61h-5.06l-.24,2.61a13.54,13.54,0,0,0-4.68,1.93l-2-1.67L318.25,199Zm16,2.8a6.58,6.58,0,1,1-9.3,0A6.57,6.57,0,0,1,335.94,203.83Z" style="fill:#fff;opacity:0.4"></path><path d="M313.66,173.05a8.87,8.87,0,0,0-1.24,3l-1.69.15v3.27l1.69.16a8.74,8.74,0,0,0,1.24,3l-1.08,1.3,2.31,2.31,1.31-1.08a8.57,8.57,0,0,0,3,1.25l.16,1.69h3.26l.16-1.69a8.57,8.57,0,0,0,3-1.25l1.3,1.08,2.31-2.31-1.07-1.3a8.74,8.74,0,0,0,1.24-3l1.69-.16v-3.27l-1.69-.16a8.9,8.9,0,0,0-1.24-3l1.07-1.3-2.31-2.31-1.3,1.08a8.76,8.76,0,0,0-3-1.25l-.16-1.68h-3.26l-.16,1.68a8.76,8.76,0,0,0-3,1.25l-1.31-1.08-2.31,2.31ZM324,174.86a4.25,4.25,0,1,1-6,0A4.25,4.25,0,0,1,324,174.86Z" style="fill:#407BFF"></path><path d="M313.66,173.05a8.87,8.87,0,0,0-1.24,3l-1.69.15v3.27l1.69.16a8.74,8.74,0,0,0,1.24,3l-1.08,1.3,2.31,2.31,1.31-1.08a8.57,8.57,0,0,0,3,1.25l.16,1.69h3.26l.16-1.69a8.57,8.57,0,0,0,3-1.25l1.3,1.08,2.31-2.31-1.07-1.3a8.74,8.74,0,0,0,1.24-3l1.69-.16v-3.27l-1.69-.16a8.9,8.9,0,0,0-1.24-3l1.07-1.3-2.31-2.31-1.3,1.08a8.76,8.76,0,0,0-3-1.25l-.16-1.68h-3.26l-.16,1.68a8.76,8.76,0,0,0-3,1.25l-1.31-1.08-2.31,2.31ZM324,174.86a4.25,4.25,0,1,1-6,0A4.25,4.25,0,0,1,324,174.86Z" style="fill:#fff;opacity:0.7000000000000001"></path><path d="M177,300.57a8.9,8.9,0,0,0-1.24,3l-1.69.16V307l1.69.16a8.82,8.82,0,0,0,1.24,3l-1.07,1.3,2.31,2.31,1.3-1.08a8.57,8.57,0,0,0,3,1.25l.16,1.69H186l.16-1.69a8.57,8.57,0,0,0,3-1.25l1.31,1.08,2.31-2.31-1.08-1.3a8.63,8.63,0,0,0,1.24-3l1.69-.16v-3.27l-1.69-.16a8.7,8.7,0,0,0-1.24-3l1.08-1.3L190.47,297,189.16,298a8.76,8.76,0,0,0-3-1.25l-.16-1.68h-3.26l-.16,1.68a8.76,8.76,0,0,0-3,1.25l-1.3-1.08-2.31,2.31Zm10.36,1.81a4.25,4.25,0,1,1-6,0A4.25,4.25,0,0,1,187.36,302.38Z" style="fill:#407BFF"></path><path d="M177,300.57a8.9,8.9,0,0,0-1.24,3l-1.69.16V307l1.69.16a8.82,8.82,0,0,0,1.24,3l-1.07,1.3,2.31,2.31,1.3-1.08a8.57,8.57,0,0,0,3,1.25l.16,1.69H186l.16-1.69a8.57,8.57,0,0,0,3-1.25l1.31,1.08,2.31-2.31-1.08-1.3a8.63,8.63,0,0,0,1.24-3l1.69-.16v-3.27l-1.69-.16a8.7,8.7,0,0,0-1.24-3l1.08-1.3L190.47,297,189.16,298a8.76,8.76,0,0,0-3-1.25l-.16-1.68h-3.26l-.16,1.68a8.76,8.76,0,0,0-3,1.25l-1.3-1.08-2.31,2.31Zm10.36,1.81a4.25,4.25,0,1,1-6,0A4.25,4.25,0,0,1,187.36,302.38Z" style="fill:#fff;opacity:0.7000000000000001"></path><path d="M199.5,206.29a63,63,0,0,0-9,21.8l-12.18,1.15v23.58L190.5,254a63.14,63.14,0,0,0,9,21.81l-7.78,9.39,16.68,16.68,9.39-7.78a63.14,63.14,0,0,0,21.81,9l1.15,12.18h23.58l1.15-12.18a63,63,0,0,0,21.8-9l9.4,7.78,16.68-16.68-7.78-9.39a63.06,63.06,0,0,0,9-21.81l12.17-1.15V229.24l-12.17-1.15a63.09,63.09,0,0,0-9-21.8l7.78-9.4-16.68-16.67-9.4,7.77a63.09,63.09,0,0,0-21.8-9l-1.15-12.18H240.75L239.6,179a63.14,63.14,0,0,0-21.81,9l-9.39-7.78-16.68,16.68ZM279.62,214a38.3,38.3,0,1,1-54.16,0A38.31,38.31,0,0,1,279.62,214Z" style="fill:#407BFF"></path><path d="M241.26,244.4h-8.5l-1.63,3.93h-4.34L235,230h4.18l8.19,18.32h-4.45Zm-1.33-3.22-2.91-7-2.9,7Z" style="fill:#407BFF"></path><path d="M261.4,230.82a6.56,6.56,0,0,1,2.76,9.35,6.24,6.24,0,0,1-2.76,2.31,10.4,10.4,0,0,1-4.23.79h-3.69v5.06h-4.24V230h7.93A10.23,10.23,0,0,1,261.4,230.82ZM259.84,239a3.27,3.27,0,0,0,0-4.71,4.44,4.44,0,0,0-2.9-.83h-3.46v6.36h3.46A4.44,4.44,0,0,0,259.84,239Z" style="fill:#407BFF"></path><path d="M268.14,230h4.24v18.32h-4.24Z" style="fill:#407BFF"></path><path d="M217.79,245.88a.5.5,0,0,1-.5-.45,37.14,37.14,0,0,1,8.57-28.17.5.5,0,1,1,.76.65,36.11,36.11,0,0,0-8.33,27.42.51.51,0,0,1-.45.55Z" style="fill:#407BFF"></path><path d="M219.48,253.78a.49.49,0,0,1-.48-.36,38.93,38.93,0,0,1-1-4.24.5.5,0,0,1,1-.18,39.49,39.49,0,0,0,1,4.14.5.5,0,0,1-.34.62A.36.36,0,0,1,219.48,253.78Z" style="fill:#407BFF"></path><path d="M171.08,239.36H128.33a.5.5,0,0,1-.5-.5V188.8a.5.5,0,0,1,.5-.5.5.5,0,0,1,.5.5v49.56h42.25a.5.5,0,0,1,.5.5A.51.51,0,0,1,171.08,239.36Z" style="fill:#407BFF"></path><circle cx="128.33" cy="188.8" r="2.56" style="fill:#407BFF"></circle><circle cx="389.2" cy="278.42" r="2.56" style="fill:#407BFF"></circle><polygon points="389.7 298.4 326.08 298.4 326.08 270.99 317.2 270.99 317.2 269.99 327.08 269.99 327.08 297.4 388.7 297.4 388.7 278.05 389.7 278.05 389.7 298.4" style="fill:#407BFF"></polygon></g><g id="freepik--Server--inject-2"><rect x="359.99" y="305.39" width="108.89" height="104.44" style="fill:#407BFF"></rect><rect x="359.99" y="305.39" width="108.89" height="104.44" style="fill:#fff;isolation:isolate;opacity:0.4"></rect><rect x="394.65" y="305.39" width="74.22" height="104.44" style="fill:#fff;isolation:isolate;opacity:0.4"></rect><rect x="398.36" y="310.73" width="66.8" height="12.93" style="fill:#407BFF"></rect><rect x="398.36" y="326.9" width="66.8" height="12.93" style="fill:#407BFF"></rect><rect x="398.36" y="343.06" width="66.8" height="12.93" style="fill:#407BFF"></rect><rect x="398.36" y="359.23" width="66.8" height="12.93" style="fill:#407BFF"></rect><rect x="398.36" y="375.4" width="66.8" height="12.93" style="fill:#407BFF"></rect><rect x="398.36" y="391.57" width="66.8" height="12.93" style="fill:#407BFF"></rect><rect x="363.88" y="310.73" width="26.89" height="12.93" style="fill:#407BFF"></rect><rect x="363.88" y="326.9" width="26.89" height="12.93" style="fill:#407BFF"></rect><rect x="363.88" y="343.06" width="26.89" height="12.93" style="fill:#407BFF"></rect><rect x="363.88" y="359.23" width="26.89" height="12.93" style="fill:#407BFF"></rect><rect x="363.88" y="375.4" width="26.89" height="12.93" style="fill:#407BFF"></rect><rect x="363.88" y="391.57" width="26.89" height="12.93" style="fill:#407BFF"></rect><rect x="460.33" y="312.41" width="1.56" height="9.57" style="fill:#fff;isolation:isolate;opacity:0.30000000000000004"></rect><rect x="457.33" y="312.41" width="1.56" height="9.57" style="fill:#fff;isolation:isolate;opacity:0.30000000000000004"></rect><rect x="454.33" y="312.41" width="1.56" height="9.57" style="fill:#fff;isolation:isolate;opacity:0.30000000000000004"></rect><rect x="451.33" y="312.41" width="1.56" height="9.57" style="fill:#fff;isolation:isolate;opacity:0.30000000000000004"></rect><rect x="448.33" y="312.41" width="1.56" height="9.57" style="fill:#fff;isolation:isolate;opacity:0.30000000000000004"></rect><rect x="460.33" y="328.58" width="1.56" height="9.56" style="fill:#fff;isolation:isolate;opacity:0.30000000000000004"></rect><rect x="457.33" y="328.58" width="1.56" height="9.56" style="fill:#fff;isolation:isolate;opacity:0.30000000000000004"></rect><rect x="454.33" y="328.58" width="1.56" height="9.56" style="fill:#fff;isolation:isolate;opacity:0.30000000000000004"></rect><rect x="451.33" y="328.58" width="1.56" height="9.56" style="fill:#fff;isolation:isolate;opacity:0.30000000000000004"></rect><rect x="448.33" y="328.58" width="1.56" height="9.56" style="fill:#fff;isolation:isolate;opacity:0.30000000000000004"></rect><rect x="460.33" y="344.75" width="1.56" height="9.56" style="fill:#fff;isolation:isolate;opacity:0.30000000000000004"></rect><rect x="457.33" y="344.75" width="1.56" height="9.56" style="fill:#fff;isolation:isolate;opacity:0.30000000000000004"></rect><rect x="454.33" y="344.75" width="1.56" height="9.56" style="fill:#fff;isolation:isolate;opacity:0.30000000000000004"></rect><rect x="451.33" y="344.75" width="1.56" height="9.56" style="fill:#fff;isolation:isolate;opacity:0.30000000000000004"></rect><rect x="448.33" y="344.75" width="1.56" height="9.56" style="fill:#fff;isolation:isolate;opacity:0.30000000000000004"></rect><rect x="460.33" y="360.92" width="1.56" height="9.57" style="fill:#fff;isolation:isolate;opacity:0.30000000000000004"></rect><rect x="457.33" y="360.92" width="1.56" height="9.57" style="fill:#fff;isolation:isolate;opacity:0.30000000000000004"></rect><rect x="454.33" y="360.92" width="1.56" height="9.57" style="fill:#fff;isolation:isolate;opacity:0.30000000000000004"></rect><rect x="451.33" y="360.92" width="1.56" height="9.57" style="fill:#fff;isolation:isolate;opacity:0.30000000000000004"></rect><rect x="448.33" y="360.92" width="1.56" height="9.57" style="fill:#fff;isolation:isolate;opacity:0.30000000000000004"></rect><rect x="460.33" y="377.09" width="1.56" height="9.56" style="fill:#fff;isolation:isolate;opacity:0.30000000000000004"></rect><rect x="457.33" y="377.09" width="1.56" height="9.56" style="fill:#fff;isolation:isolate;opacity:0.30000000000000004"></rect><rect x="454.33" y="377.09" width="1.56" height="9.56" style="fill:#fff;isolation:isolate;opacity:0.30000000000000004"></rect><rect x="451.33" y="377.09" width="1.56" height="9.56" style="fill:#fff;isolation:isolate;opacity:0.30000000000000004"></rect><rect x="448.33" y="377.09" width="1.56" height="9.56" style="fill:#fff;isolation:isolate;opacity:0.30000000000000004"></rect><rect x="460.33" y="393.25" width="1.56" height="9.57" style="fill:#fff;isolation:isolate;opacity:0.30000000000000004"></rect><rect x="457.33" y="393.25" width="1.56" height="9.57" style="fill:#fff;isolation:isolate;opacity:0.30000000000000004"></rect><rect x="454.33" y="393.25" width="1.56" height="9.57" style="fill:#fff;isolation:isolate;opacity:0.30000000000000004"></rect><rect x="451.33" y="393.25" width="1.56" height="9.57" style="fill:#fff;isolation:isolate;opacity:0.30000000000000004"></rect><rect x="448.33" y="393.25" width="1.56" height="9.57" style="fill:#fff;isolation:isolate;opacity:0.30000000000000004"></rect><path d="M406.13,317.19a1.59,1.59,0,1,1-1.59-1.59h0A1.59,1.59,0,0,1,406.13,317.19Z" style="fill:#fff;isolation:isolate;opacity:0.2"></path><path d="M416.13,317.19a1.59,1.59,0,1,1-1.59-1.59h0A1.59,1.59,0,0,1,416.13,317.19Z" style="fill:#fff;isolation:isolate;opacity:0.2"></path><path d="M426.13,317.19a1.59,1.59,0,1,1-1.59-1.59h0A1.59,1.59,0,0,1,426.13,317.19Z" style="fill:#fff;isolation:isolate;opacity:0.4"></path><path d="M406.13,333.36a1.59,1.59,0,1,1-1.59-1.59h0A1.59,1.59,0,0,1,406.13,333.36Z" style="fill:#fff;isolation:isolate;opacity:0.4"></path><path d="M416.13,333.36a1.59,1.59,0,1,1-1.59-1.59h0A1.59,1.59,0,0,1,416.13,333.36Z" style="fill:#fff;isolation:isolate;opacity:0.2"></path><path d="M426.13,333.36a1.59,1.59,0,1,1-1.59-1.59h0A1.59,1.59,0,0,1,426.13,333.36Z" style="fill:#fff;isolation:isolate;opacity:0.4"></path><path d="M406.13,349.53a1.59,1.59,0,1,1-1.59-1.59h0A1.59,1.59,0,0,1,406.13,349.53Z" style="fill:#fff;isolation:isolate;opacity:0.2"></path><path d="M416.13,349.53a1.59,1.59,0,1,1-1.59-1.59h0A1.59,1.59,0,0,1,416.13,349.53Z" style="fill:#fff;isolation:isolate;opacity:0.4"></path><path d="M426.13,349.53a1.59,1.59,0,1,1-1.59-1.59h0A1.59,1.59,0,0,1,426.13,349.53Z" style="fill:#fff;isolation:isolate;opacity:0.2"></path><path d="M406.13,365.7a1.59,1.59,0,1,1-1.59-1.59h0A1.59,1.59,0,0,1,406.13,365.7Z" style="fill:#fff;isolation:isolate;opacity:0.4"></path><path d="M416.13,365.7a1.59,1.59,0,1,1-1.59-1.59h0A1.59,1.59,0,0,1,416.13,365.7Z" style="fill:#fff;isolation:isolate;opacity:0.2"></path><path d="M426.13,365.7a1.59,1.59,0,1,1-1.59-1.59h0A1.59,1.59,0,0,1,426.13,365.7Z" style="fill:#fff;isolation:isolate;opacity:0.2"></path><path d="M406.13,381.87a1.59,1.59,0,1,1-1.59-1.59h0A1.59,1.59,0,0,1,406.13,381.87Z" style="fill:#fff;isolation:isolate;opacity:0.2"></path><path d="M416.13,381.87a1.59,1.59,0,1,1-1.59-1.59h0A1.59,1.59,0,0,1,416.13,381.87Z" style="fill:#fff;isolation:isolate;opacity:0.4"></path><path d="M426.13,381.87a1.59,1.59,0,1,1-1.59-1.59h0A1.59,1.59,0,0,1,426.13,381.87Z" style="fill:#fff;isolation:isolate;opacity:0.4"></path><path d="M406.13,398a1.59,1.59,0,1,1-1.59-1.59h0A1.59,1.59,0,0,1,406.13,398Z" style="fill:#fff;isolation:isolate;opacity:0.4"></path><path d="M416.13,398a1.59,1.59,0,1,1-1.59-1.59h0A1.59,1.59,0,0,1,416.13,398Z" style="fill:#fff;isolation:isolate;opacity:0.2"></path><path d="M426.13,398a1.59,1.59,0,1,1-1.59-1.59h0A1.59,1.59,0,0,1,426.13,398Z" style="fill:#fff;isolation:isolate;opacity:0.4"></path><rect x="359.99" y="305.39" width="34.66" height="104.44" style="opacity:0.30000000000000004"></rect></g><g id="freepik--Tabs--inject-2"><rect x="354.01" y="175.26" width="111.08" height="93.4" rx="4.94" style="fill:#407BFF"></rect><rect x="354.01" y="175.26" width="111.08" height="93.4" rx="4.94" style="fill:#fff;opacity:0.5"></rect><path d="M358.64,175.26H460.54a4.55,4.55,0,0,1,4.55,4.55v11.74a0,0,0,0,1,0,0H354a0,0,0,0,1,0,0V179.89A4.63,4.63,0,0,1,358.64,175.26Z" style="fill:#407BFF"></path><path d="M458.81,184.59a3.56,3.56,0,1,1-3.55-3.55A3.55,3.55,0,0,1,458.81,184.59Z" style="fill:#fff;opacity:0.5"></path><path d="M448.71,184.59a3.56,3.56,0,1,1-3.56-3.55A3.56,3.56,0,0,1,448.71,184.59Z" style="fill:#fff;opacity:0.5"></path><path d="M438.6,184.59a3.56,3.56,0,1,1-3.55-3.55A3.55,3.55,0,0,1,438.6,184.59Z" style="fill:#fff;opacity:0.5"></path><rect x="379.01" y="205.16" width="56.97" height="3.32" style="fill:#fff;opacity:0.6000000000000001"></rect><rect x="379.89" y="212.34" width="40.77" height="3.32" style="fill:#263238;opacity:0.6000000000000001"></rect><rect x="440.17" y="205.16" width="11.21" height="3.32" style="fill:#407BFF"></rect><rect x="363.84" y="205.16" width="11.21" height="3.32" style="fill:#407BFF"></rect><rect x="379.01" y="220.31" width="56.97" height="3.32" style="fill:#407BFF"></rect><rect x="440.17" y="220.31" width="11.21" height="3.32" style="fill:#fff;opacity:0.6000000000000001"></rect><rect x="363.84" y="220.31" width="11.21" height="3.32" style="fill:#407BFF"></rect><rect x="379.01" y="251.87" width="56.97" height="3.32" style="fill:#407BFF"></rect><rect x="440.17" y="251.87" width="11.21" height="3.32" style="fill:#fff;opacity:0.6000000000000001"></rect><rect x="379.01" y="228.29" width="56.97" height="3.32" style="fill:#407BFF"></rect><rect x="440.17" y="228.29" width="11.21" height="3.32" style="fill:#263238;opacity:0.6000000000000001"></rect><rect x="363.84" y="228.29" width="11.21" height="3.32" style="fill:#263238;opacity:0.6000000000000001"></rect><rect x="425.12" y="212.47" width="27.08" height="3.32" style="fill:#407BFF"></rect><rect x="379.01" y="235.25" width="40.77" height="3.32" style="fill:#fff;opacity:0.6000000000000001"></rect><rect x="424.24" y="235.38" width="27.08" height="3.32" style="fill:#407BFF"></rect><rect x="379.01" y="242.46" width="20.38" height="3.32" style="fill:#263238;opacity:0.6000000000000001"></rect><rect x="52.7" y="79.65" width="111.08" height="93.4" rx="4.94" style="fill:#407BFF"></rect><rect x="52.7" y="79.65" width="111.08" height="93.4" rx="4.94" style="fill:#fff;opacity:0.5"></rect><path d="M57.32,79.65H159.23a4.55,4.55,0,0,1,4.55,4.55V95.94a0,0,0,0,1,0,0H52.7a0,0,0,0,1,0,0V84.28A4.63,4.63,0,0,1,57.32,79.65Z" style="fill:#407BFF"></path><path d="M157.5,89A3.56,3.56,0,1,1,154,85.43,3.55,3.55,0,0,1,157.5,89Z" style="fill:#fff;opacity:0.5"></path><path d="M147.4,89a3.56,3.56,0,1,1-3.56-3.56A3.55,3.55,0,0,1,147.4,89Z" style="fill:#fff;opacity:0.5"></path><path d="M137.29,89a3.56,3.56,0,1,1-3.55-3.56A3.55,3.55,0,0,1,137.29,89Z" style="fill:#fff;opacity:0.5"></path><path d="M143.24,131.72c-3.68-4.94-11.23-7.35-16.26-3.78a21,21,0,0,0-41.65,5.81c-4.86-1.11-10.2.06-13.35,5.08-4.1,6.5,1.21,12.95,1.21,12.95l28.5.17V141.5H98.05a.73.73,0,0,1-.53-1.24l4.19-4.38,4.86-5.07a.74.74,0,0,1,1.06,0l4.85,5.07,4.2,4.38a.74.74,0,0,1-.53,1.24H112.5V152l30.34.17C147.16,147.21,146.93,136.66,143.24,131.72Z" style="fill:#fff"></path></g><g id="freepik--speech-bubble--inject-2"><path d="M35,270.84H71.6a6,6,0,0,1,6,6v19.76a6,6,0,0,1-6,6H62.84l-.06,6-6.59-6H35a6,6,0,0,1-6-6V276.83A6,6,0,0,1,35,270.84Z" style="fill:#407BFF"></path><path d="M48.79,283.59,43,286.28l5.77,2.7v2.17l-7.71-3.74v-2.25l7.71-3.74Z" style="fill:#fff"></path><path d="M66.35,285.16v2.25l-7.71,3.74V289l5.77-2.7-5.77-2.69v-2.17Z" style="fill:#fff"></path><polygon points="55.07 279.9 51.31 292.9 53.19 292.9 56.95 279.9 55.07 279.9" style="fill:#fff"></polygon><path d="M63.15,269.49H44.36a.25.25,0,0,1,0-.5H63.15a.25.25,0,0,1,0,.5Z" style="fill:#407BFF"></path><path d="M68.34,269.5h-3a.25.25,0,0,1,0-.5h3a.25.25,0,1,1,0,.5Z" style="fill:#407BFF"></path></g></svg>
